<svg aria-hidden="true" style="position: absolute; width: 0; height: 0; overflow: hidden;" version="1.1"
  xmlns="http://www.w3.org/2000/svg" xmlns:xlink="http://www.w3.org/1999/xlink">
  <defs>
    <symbol id="icon-settings" viewBox="0 0 32 32">
      <path
        d="M25.428 26.428c-0.252 0-0.508-0.092-0.708-0.292-0.388-0.388-0.388-1.028 0-1.412 4.812-4.812 4.812-12.64 0-17.44-0.388-0.388-0.388-1.028 0-1.412 0.388-0.388 1.028-0.388 1.412 0 5.588 5.588 5.588 14.68 0 20.268-0.196 0.196-0.448 0.288-0.704 0.288z">
      </path>
      <path
        d="M6.572 26.428c-0.252 0-0.508-0.092-0.708-0.292-5.584-5.588-5.584-14.68 0.004-20.268 0.388-0.388 1.028-0.388 1.412 0 0.388 0.388 0.388 1.028 0 1.412-4.812 4.816-4.812 12.64 0 17.44 0.388 0.388 0.388 1.028 0 1.412-0.2 0.204-0.452 0.296-0.708 0.296z">
      </path>
      <path
        d="M16 30.284c-1.668-0.012-3.252-0.28-4.732-0.8-0.52-0.188-0.8-0.76-0.612-1.28s0.748-0.8 1.28-0.612c1.28 0.44 2.64 0.68 4.080 0.68 1.428 0 2.8-0.24 4.068-0.68 0.52-0.172 1.092 0.092 1.28 0.612s-0.092 1.092-0.612 1.28c-1.5 0.52-3.088 0.8-4.752 0.8z">
      </path>
      <path
        d="M20.4 4.452c-0.108 0-0.228-0.012-0.332-0.052-1.268-0.456-2.644-0.68-4.068-0.68s-2.788 0.24-4.068 0.68c-0.532 0.172-1.092-0.092-1.28-0.612s0.092-1.092 0.612-1.28c1.496-0.524 3.080-0.788 4.736-0.788s3.252 0.268 4.732 0.788c0.52 0.188 0.8 0.76 0.612 1.28-0.144 0.412-0.532 0.664-0.944 0.664z">
      </path>
      <path
        d="M17.216 9.388c0.332 0.136 0.592 0.396 0.732 0.732 0.060 0.152 0.088 0.324 0.096 0.58 0.016 0.372 0.208 0.72 0.536 0.908s0.728 0.18 1.060 0.004c0.228-0.12 0.392-0.188 0.556-0.208 0.356-0.044 0.716 0.052 1 0.268 0.216 0.164 0.372 0.436 0.688 0.976s0.472 0.812 0.508 1.076c0.048 0.352-0.048 0.708-0.268 0.992-0.1 0.128-0.24 0.236-0.456 0.372-0.32 0.196-0.524 0.54-0.524 0.912s0.204 0.712 0.524 0.912c0.216 0.136 0.356 0.244 0.456 0.372 0.22 0.28 0.316 0.64 0.268 0.992-0.036 0.264-0.192 0.536-0.508 1.076-0.316 0.544-0.476 0.812-0.688 0.976-0.284 0.22-0.644 0.316-1 0.268-0.164-0.024-0.328-0.088-0.556-0.208-0.332-0.176-0.732-0.184-1.060 0.004s-0.52 0.532-0.536 0.908c-0.008 0.256-0.032 0.428-0.096 0.58-0.136 0.332-0.4 0.592-0.732 0.728-0.252 0.104-0.564 0.104-1.196 0.104s-0.948 0-1.196-0.104c-0.332-0.136-0.596-0.4-0.732-0.728-0.060-0.152-0.088-0.324-0.096-0.58-0.016-0.372-0.208-0.72-0.536-0.908s-0.728-0.18-1.060-0.004c-0.228 0.12-0.392 0.188-0.556 0.208-0.356 0.044-0.716-0.052-1-0.268-0.216-0.164-0.372-0.436-0.688-0.976s-0.472-0.812-0.508-1.076c-0.048-0.352 0.048-0.708 0.268-0.992 0.1-0.128 0.24-0.236 0.456-0.372 0.32-0.196 0.524-0.536 0.524-0.912s-0.204-0.716-0.524-0.916c-0.216-0.136-0.356-0.244-0.456-0.372-0.22-0.28-0.316-0.64-0.268-0.992 0.036-0.264 0.192-0.536 0.508-1.076 0.316-0.544 0.476-0.812 0.688-0.976 0.284-0.22 0.644-0.316 1-0.268 0.164 0.024 0.328 0.088 0.556 0.208 0.332 0.176 0.732 0.184 1.060-0.004s0.52-0.532 0.536-0.908c0.008-0.256 0.032-0.428 0.096-0.58 0.136-0.332 0.4-0.592 0.732-0.728 0.252-0.104 0.564-0.104 1.196-0.104s0.948 0 1.196 0.104zM16.020 18.016c1.12 0 2.032-0.9 2.032-2.016s-0.908-2.016-2.032-2.016-2.032 0.9-2.032 2.016 0.912 2.016 2.032 2.016z">
      </path>
    </symbol>
    <symbol id="icon-remove" viewBox="0 0 32 32">
      <path
        d="M25.58 26.136c-0.252 0-0.508-0.092-0.708-0.292-0.388-0.388-0.388-1.028 0-1.412 4.812-4.812 4.812-12.64 0-17.44-0.388-0.388-0.388-1.028 0-1.412 0.388-0.388 1.028-0.388 1.412 0 5.588 5.588 5.588 14.68 0 20.268-0.2 0.196-0.452 0.288-0.704 0.288z">
      </path>
      <path
        d="M6.724 26.136c-0.252 0-0.508-0.092-0.708-0.292-5.588-5.588-5.588-14.68 0-20.268 0.388-0.388 1.028-0.388 1.412 0 0.388 0.388 0.388 1.028 0 1.412-4.812 4.812-4.812 12.64 0 17.44 0.388 0.388 0.388 1.028 0 1.412-0.196 0.204-0.452 0.296-0.704 0.296z">
      </path>
      <path
        d="M16.148 29.988c-1.668-0.012-3.252-0.28-4.732-0.8-0.52-0.188-0.8-0.76-0.612-1.28s0.748-0.8 1.28-0.612c1.28 0.44 2.64 0.68 4.080 0.68 1.428 0 2.8-0.24 4.068-0.68 0.52-0.172 1.092 0.092 1.28 0.612s-0.092 1.092-0.612 1.28c-1.5 0.52-3.084 0.8-4.752 0.8z">
      </path>
      <path
        d="M20.548 4.16c-0.108 0-0.228-0.012-0.332-0.052-1.268-0.452-2.64-0.68-4.068-0.68s-2.788 0.24-4.068 0.68c-0.532 0.172-1.092-0.092-1.28-0.612s0.092-1.092 0.612-1.28c1.492-0.52 3.080-0.788 4.732-0.788s3.252 0.268 4.732 0.788c0.52 0.188 0.8 0.76 0.612 1.28-0.14 0.412-0.528 0.664-0.94 0.664z">
      </path>
      <path
        d="M19.424 10.472v0.656h-1.308v-0.656h-3.924v0.656h-1.312v-0.656c0-0.724 0.584-1.308 1.308-1.308h3.924c0.724 0 1.312 0.588 1.312 1.308z">
      </path>
      <path
        d="M21.384 11.784h-10.468c-0.36 0-0.656 0.292-0.656 0.656s0.292 0.656 0.656 0.656h0.656v7.852c0 0.724 0.584 1.308 1.308 1.308h6.544c0.724 0 1.308-0.584 1.308-1.308v-7.856h0.656c0.36 0 0.656-0.292 0.656-0.656s-0.296-0.652-0.66-0.652zM15.496 18.98c0 0.36-0.292 0.656-0.656 0.656s-0.656-0.292-0.656-0.656v-3.924c0-0.36 0.292-0.656 0.656-0.656s0.656 0.292 0.656 0.656v3.924zM18.116 18.98c0 0.36-0.292 0.656-0.656 0.656s-0.656-0.292-0.656-0.656v-3.924c0-0.36 0.292-0.656 0.656-0.656s0.656 0.292 0.656 0.656v3.924z">
      </path>
    </symbol>
    <symbol id="icon-play" viewBox="0 0 32 32">
      <path
        d="M25.429 26.428c-0.253 0-0.507-0.093-0.707-0.293-0.387-0.387-0.387-1.027 0-1.413 4.813-4.813 4.813-12.64 0-17.44-0.387-0.387-0.387-1.027 0-1.413s1.027-0.387 1.413 0c5.587 5.587 5.587 14.68 0 20.267-0.2 0.2-0.453 0.293-0.707 0.293z">
      </path>
      <path
        d="M6.574 26.428c-0.253 0-0.507-0.093-0.707-0.293-5.587-5.587-5.587-14.68 0-20.267 0.387-0.387 1.027-0.387 1.413 0s0.387 1.027 0 1.413c-4.813 4.813-4.813 12.64 0 17.44 0.387 0.387 0.387 1.027 0 1.413-0.2 0.2-0.453 0.293-0.707 0.293z">
      </path>
      <path
        d="M15.998 30.283c-1.667-0.013-3.253-0.28-4.733-0.8-0.52-0.187-0.8-0.76-0.613-1.28s0.747-0.8 1.28-0.613c1.28 0.44 2.64 0.68 4.080 0.68 1.427 0 2.8-0.24 4.067-0.68 0.52-0.173 1.093 0.093 1.28 0.613s-0.093 1.093-0.613 1.28c-1.493 0.52-3.080 0.8-4.747 0.8z">
      </path>
      <path
        d="M20.398 4.452c-0.107 0-0.227-0.013-0.333-0.053-1.267-0.453-2.64-0.68-4.067-0.68s-2.787 0.24-4.067 0.68c-0.533 0.173-1.093-0.093-1.28-0.613s0.093-1.093 0.613-1.28c1.493-0.52 3.080-0.787 4.733-0.787s3.253 0.267 4.733 0.787c0.52 0.187 0.8 0.76 0.613 1.28-0.147 0.413-0.533 0.667-0.947 0.667z">
      </path>
      <path
        d="M11.651 16v-2.227c0-2.773 1.96-3.907 4.36-2.52l3.867 2.24c2.4 1.387 2.4 3.653 0 5.040l-3.867 2.24c-2.4 1.387-4.36 0.253-4.36-2.52v-2.253z">
      </path>
    </symbol>
    <symbol id="icon-stop" viewBox="0 0 32 32">
      <path
        d="M25.768 26.428c-0.252 0-0.508-0.092-0.708-0.292-0.388-0.388-0.388-1.028 0-1.412 4.812-4.812 4.812-12.64 0-17.44-0.388-0.388-0.388-1.028 0-1.412 0.388-0.388 1.028-0.388 1.412 0 5.588 5.588 5.588 14.68 0 20.268-0.196 0.196-0.452 0.288-0.704 0.288z">
      </path>
      <path
        d="M6.912 26.428c-0.252 0-0.508-0.092-0.708-0.292-5.588-5.588-5.588-14.68 0-20.268 0.388-0.388 1.028-0.388 1.412 0 0.388 0.388 0.388 1.028 0 1.412-4.812 4.812-4.812 12.64 0 17.44 0.388 0.388 0.388 1.028 0 1.412-0.196 0.204-0.452 0.296-0.704 0.296z">
      </path>
      <path
        d="M16.336 30.284c-1.668-0.012-3.252-0.28-4.732-0.8-0.52-0.188-0.8-0.76-0.612-1.28s0.748-0.8 1.28-0.612c1.28 0.44 2.64 0.68 4.080 0.68 1.428 0 2.8-0.24 4.068-0.68 0.52-0.172 1.092 0.092 1.28 0.612s-0.092 1.092-0.612 1.28c-1.496 0.52-3.084 0.8-4.752 0.8z">
      </path>
      <path
        d="M20.736 4.452c-0.108 0-0.228-0.012-0.332-0.052-1.268-0.452-2.64-0.68-4.068-0.68s-2.788 0.24-4.068 0.68c-0.532 0.172-1.092-0.092-1.28-0.612s0.092-1.092 0.612-1.28c1.492-0.52 3.080-0.788 4.732-0.788s3.252 0.268 4.732 0.788c0.52 0.188 0.8 0.76 0.612 1.28-0.14 0.412-0.524 0.664-0.94 0.664z">
      </path>
      <path
        d="M13.008 11.004h6.664c0.92 0 1.668 0.744 1.668 1.668v6.664c0 0.92-0.744 1.668-1.668 1.668h-6.664c-0.92 0-1.668-0.744-1.668-1.668v-6.668c0-0.92 0.748-1.664 1.668-1.664z">
      </path>
    </symbol>
  </defs>
</svg>